
<?xml version="1.0" encoding="UTF-8"?>
<svg viewBox="0 0 100 100" version="1.1" xmlns="http://www.w3.org/2000/svg" xmlns:xlink="http://www.w3.org/1999/xlink">

    <defs></defs>
    <g id="7.-Newspaper" stroke="none" stroke-width="1" fill="none" fill-rule="evenodd" stroke-linecap="round" stroke-linejoin="round">
        <path d="M98,21.2 L78.8,21.2 L78.8,88.4070184 C78.8,93.6985281 83.0980664,98 88.4,98 C93.7030993,98 98,93.7050758 98,88.4070184" id="Layer-1" stroke="#fff" stroke-width="4" transform="translate(88.400000, 59.600000) scale(-1, 1) translate(-88.400000, -59.600000) "></path>
        <path d="M2,98 L80.246183,98 C85.5369227,98 89.8430827,93.7019062 89.8430827,88.3999387 L89.8430827,2 L13.128864,2 L13.0430827,2 L13.0430827,88.4066108 C13.0430827,93.7048933 8.75236368,98 3.43691729,98 L2,98 L2,98 Z" id="Layer-2" stroke="#fff" stroke-width="4" transform="translate(45.921541, 50.000000) scale(-1, 1) translate(-45.921541, -50.000000) "></path>
        <path d="M16,28 L68.0047841,28" id="Layer-3" stroke="#fff" stroke-width="4"></path>
        <path d="M16,40 L68.0047841,40" id="Layer-4" stroke="#fff" stroke-width="4"></path>
        <path d="M16,52 L68.0047841,52" id="Layer-5" stroke="#fff" stroke-width="4"></path>
        <path d="M16,64 L68.0047841,64" id="Layer-6" stroke="#fff" stroke-width="4"></path>
        <path d="M16,76 L68.0047841,76" id="Layer-7" stroke="#fff" stroke-width="4"></path>
        <path d="M16,16 L68.0047841,16" id="Layer-8" stroke="#fff" stroke-width="4"></path>
    </g>
</svg>