<?xml version="1.0" encoding="iso-8859-1"?>
<!-- Generator: Adobe Illustrator 19.0.0, SVG Export Plug-In . SVG Version: 6.00 Build 0)  -->
<svg xmlns="http://www.w3.org/2000/svg" xmlns:xlink="http://www.w3.org/1999/xlink" version="1.1" id="Capa_1" x="0px" y="0px" viewBox="0 0 512.001 512.001" style="enable-background:new 0 0 512.001 512.001;" xml:space="preserve" width="512px" height="512px">
<g>
	<g>
		<path d="M256,0c-4.039,0-7.313,3.274-7.313,7.313v38.453c0,4.038,3.274,7.312,7.313,7.312s7.313-3.274,7.313-7.313V7.313    C263.313,3.274,260.039,0,256,0z" fill="#ffa800"/>
	</g>
</g>
<g>
	<g>
		<path d="M487.692,231.692H449.24c-4.039,0-7.313,3.273-7.313,7.313c0,4.039,3.273,7.313,7.313,7.313h38.453    c4.039,0,7.313-3.274,7.313-7.313C495.005,234.966,491.732,231.692,487.692,231.692z" fill="#ffa800"/>
	</g>
</g>
<g>
	<g>
		<path d="M62.76,231.692H24.308c-4.039,0-7.313,3.273-7.313,7.313c0,4.039,3.274,7.313,7.313,7.313H62.76    c4.039,0,7.313-3.274,7.313-7.313S66.799,231.692,62.76,231.692z" fill="#ffa800"/>
	</g>
</g>
<g>
	<g>
		<path d="M425.002,397.665l-27.191-27.19c-2.855-2.855-7.485-2.855-10.341,0.001c-2.855,2.856-2.855,7.485,0.001,10.341    l27.191,27.19c1.427,1.427,3.299,2.141,5.17,2.141c1.871,0,3.743-0.714,5.171-2.142    C427.858,405.151,427.858,400.521,425.002,397.665z" fill="#ffa800"/>
	</g>
</g>
<g>
	<g>
		<path d="M124.531,97.192L97.34,70.002c-2.856-2.855-7.486-2.856-10.341,0.001c-2.856,2.856-2.856,7.485,0,10.341l27.19,27.19    c1.428,1.427,3.299,2.141,5.171,2.141c1.872,0,3.743-0.714,5.171-2.142C127.387,104.677,127.387,100.048,124.531,97.192z" fill="#ffa800"/>
	</g>
</g>
<g>
	<g>
		<path d="M425.002,70.003c-2.855-2.855-7.485-2.856-10.341-0.001l-27.191,27.19c-2.856,2.856-2.856,7.486-0.001,10.341    c1.428,1.428,3.299,2.142,5.171,2.142c1.871,0,3.743-0.714,5.17-2.141l27.191-27.19C427.857,77.488,427.857,72.858,425.002,70.003    z" fill="#ffa800"/>
	</g>
</g>
<g>
	<g>
		<path d="M124.531,370.476c-2.856-2.857-7.486-2.856-10.342-0.001l-27.191,27.19c-2.856,2.856-2.856,7.486,0,10.341    c1.428,1.428,3.299,2.142,5.171,2.142c1.871,0,3.743-0.714,5.171-2.141l27.191-27.19    C127.387,377.961,127.387,373.331,124.531,370.476z" fill="#ffa800"/>
	</g>
</g>
<g>
	<g>
		<path d="M390.386,200.161c-0.765-3.965-4.59-6.562-8.567-5.794c-3.965,0.766-6.559,4.601-5.794,8.567    c1.473,7.629,2.219,15.473,2.219,23.314c0,26.857-8.544,52.339-24.706,73.692c-24.623,32.527-38.84,70.527-41.19,110.025h-5.131    H204.782h-5.128c-0.681-11.791-2.392-23.529-5.091-34.922c-1.711-7.222-3.844-14.405-6.342-21.348    c-2.911-8.093-6.382-16.04-10.316-23.622c-5.285-10.183-11.506-19.904-18.491-28.892c-16.92-21.771-25.792-47.894-25.657-75.545    c0.156-31.771,13-62.057,36.167-85.276c23.168-23.219,53.423-36.13,85.193-36.354c42.981-0.275,82.167,21.34,104.843,57.894    c2.129,3.432,6.637,4.487,10.069,2.358c3.432-2.129,4.488-6.637,2.358-10.069c-12.143-19.574-29.159-35.901-49.205-47.215    c-20.413-11.521-43.627-17.596-67.202-17.596c-0.321,0-0.645,0.001-0.966,0.003c-35.644,0.252-69.539,14.688-95.443,40.649    s-40.265,59.89-40.439,95.533c-0.151,30.958,9.785,60.21,28.734,84.592c6.442,8.289,12.181,17.257,17.058,26.654    c3.635,7.006,6.844,14.353,9.536,21.837c2.312,6.427,4.288,13.078,5.872,19.768c2.657,11.216,4.281,22.795,4.827,34.415    c0.309,6.585,5.714,11.744,12.31,11.761v55.647c0,17.515,14.249,31.764,31.765,31.764h53.532    c17.515,0,31.765-14.249,31.765-31.764V424.59c6.586-0.016,11.991-5.173,12.31-11.756c1.809-37.319,15.074-73.304,38.358-104.067    c18.102-23.914,27.671-52.448,27.671-82.518C392.87,217.479,392.034,208.702,390.386,200.161z M282.766,497.375h-53.532    c-8.655,0-15.813-6.454-16.961-14.797h87.453C298.579,490.921,291.421,497.375,282.766,497.375z M299.906,435.564h-29.609    c-4.039,0-7.313,3.274-7.313,7.313s3.274,7.313,7.313,7.313h29.609v17.763h-87.811V450.19h12.376c4.039,0,7.313-3.273,7.313-7.313    s-3.274-7.313-7.313-7.313h-12.376V424.59h87.811V435.564z" fill="#ffa800"/>
	</g>
</g>
<g>
	<g>
		<path d="M264.175,242.5l-0.655-0.241v-42.462l1.071,0.077c8.795,0.628,14.213,3.339,18.169,5.318    c2.338,1.171,4.186,2.095,5.813,2.095c5.133,0,7.819-6.787,7.819-10.425c0-4.954-5.798-8.069-10.662-9.808    c-5.722-2.048-13.663-3.403-21.24-3.625l-0.971-0.029v-6.383c0-1.788-2.53-3.61-5.013-3.61c-2.973,0-4.813,1.874-4.813,3.61v6.713    l-0.896,0.094c-11.182,1.178-37.189,7.07-37.189,36.289c0,25.039,19.879,32.109,37.419,38.346l0.665,0.236v48.892l-1.078-0.084    c-13.126-1.029-20.151-7.006-25.28-11.37c-2.799-2.381-5.009-4.262-7.114-4.262c-4.234,0-8.22,5.873-8.22,10.426    c0,8.968,15.858,22.251,40.709,22.652l0.984,0.016v7.197c0,1.736,1.84,3.61,4.813,3.61c2.483,0,5.013-1.822,5.013-3.609v-7.686    l0.862-0.119C287.018,321.213,300,306.524,300,284.056C300,257.868,282.302,249.167,264.175,242.5z M254.895,239.199l-1.353-0.511    c-10.882-4.106-19.89-8.488-19.89-20.579c0-10.019,6.957-16.184,20.119-17.83l1.124-0.141V239.199z M263.498,307.088l-1.182,0.219    v-45.013l1.394,0.598c9.476,4.06,18.245,9.702,18.245,23.369C281.955,297.488,275.4,304.885,263.498,307.088z" fill="#ffa800"/>
	</g>
</g>
<g>
</g>
<g>
</g>
<g>
</g>
<g>
</g>
<g>
</g>
<g>
</g>
<g>
</g>
<g>
</g>
<g>
</g>
<g>
</g>
<g>
</g>
<g>
</g>
<g>
</g>
<g>
</g>
<g>
</g>
</svg>
