<?xml version="1.0" encoding="iso-8859-1"?>
<!-- Generator: Adobe Illustrator 19.0.0, SVG Export Plug-In . SVG Version: 6.00 Build 0)  -->
<svg xmlns="http://www.w3.org/2000/svg" xmlns:xlink="http://www.w3.org/1999/xlink" version="1.1" id="Capa_1" x="0px" y="0px" viewBox="0 0 512 512" style="enable-background:new 0 0 512 512;" xml:space="preserve" width="512px" height="512px">
<g>
	<g>
		<path d="M416.205,83.759l-5.375-38.392c-0.271-1.933-1.304-3.677-2.87-4.843c-1.565-1.165-3.531-1.655-5.462-1.359l-42.296,6.478    c-3.985,0.61-6.72,4.335-6.11,8.319c0.61,3.985,4.337,6.722,8.319,6.11l24.647-3.775c-32.96,40.749-68.409,75.459-105.538,103.27    c-32.308,24.2-65.951,43.274-99.994,56.694C123.587,239.1,84.023,237.6,83.634,237.586c-4.034-0.204-7.437,2.914-7.632,6.936    c-0.196,4.026,2.909,7.448,6.935,7.644c0.238,0.011,1.234,0.054,2.942,0.054c10.516,0,47.928-1.614,100.085-22.021    c35.368-13.838,70.271-33.529,103.741-58.527c38.462-28.727,75.122-64.598,109.128-106.721l2.916,20.832    c0.511,3.649,3.637,6.287,7.219,6.287c0.336,0,0.678-0.023,1.021-0.071C413.981,91.44,416.764,87.751,416.205,83.759z" fill="#ffa800"/>
	</g>
</g>
<g>
	<g>
		<path d="M498.533,432.744h-58.979c4.855-3.228,9.427-6.958,13.643-11.175c16.619-16.619,25.771-38.715,25.771-62.217    c0-23.503-9.152-45.599-25.771-62.217c-5.92-5.92-12.492-10.794-19.472-14.671V253c0-4.031-3.268-7.298-7.298-7.298    c-4.031,0-7.298,3.268-7.298,7.298v22.982c-19.977-6.763-41.669-6.119-61.176,1.799v-89.648c0-0.944,0.768-1.712,1.712-1.712    h57.752c0.944,0,1.712,0.768,1.712,1.712v18.115c0,4.031,3.268,7.298,7.298,7.298c4.031,0,7.298-3.268,7.298-7.298v-18.115    c0-8.993-7.316-16.309-16.309-16.309h-57.752c-8.993,0-16.309,7.316-16.309,16.309v97.242c-5.17,3.329-10.072,7.237-14.592,11.758    c-16.619,16.619-25.771,38.715-25.771,62.217c0,23.503,9.152,45.599,25.771,62.217c4.216,4.216,8.788,7.947,13.643,11.175h-46.087    V254.356c0-8.993-7.316-16.309-16.309-16.309h-57.751c-8.993,0-16.309,7.316-16.309,16.309v178.388h-47.037V314.393    c0-8.993-7.316-16.309-16.309-16.309H84.852c-8.993,0-16.309,7.316-16.309,16.309v118.351H38.48V57.408    c0-7.426-6.041-13.467-13.467-13.467H13.467C6.041,43.941,0,49.982,0,57.408v51.814c0,4.031,3.268,7.298,7.298,7.298    c4.03,0,7.298-3.268,7.298-7.298V58.538h9.286v375.336c0,7.426,6.042,13.467,13.467,13.467h460.053v10.983H14.597V155.342    c0-4.031-3.268-7.298-7.298-7.298c-4.03,0-7.299,3.267-7.299,7.298v304.111c0,7.426,6.041,13.467,13.467,13.467h485.066    c7.426,0,13.467-6.041,13.467-13.467V446.21C512,438.785,505.959,432.744,498.533,432.744z M144.316,432.744L144.316,432.744    H83.14V314.393c0-0.944,0.768-1.712,1.712-1.712h57.752c0.944,0,1.712,0.768,1.712,1.712V432.744z M220.546,432.744V254.356    c0-0.944,0.768-1.712,1.712-1.712h57.751c0.944,0,1.712,0.768,1.712,1.712v178.388H220.546z M423.221,425.282    c-7.392,3.615-15.424,5.964-23.605,6.942c-0.138,0.016-0.275,0.035-0.413,0.051c-0.559,0.064-1.118,0.118-1.678,0.169    c-0.854,0.075-1.709,0.143-2.568,0.188c-0.271,0.015-0.542,0.023-0.813,0.035c-1.051,0.044-2.105,0.077-3.164,0.077    c-1.062,0-2.118-0.033-3.172-0.077c-0.333-0.014-0.667-0.03-0.999-0.049c-0.795-0.044-1.587-0.105-2.378-0.174    c-0.656-0.059-1.311-0.128-1.965-0.205c-0.468-0.054-0.935-0.109-1.4-0.172c-0.665-0.091-1.328-0.187-1.99-0.296    c-0.086-0.014-0.172-0.03-0.258-0.045c-8.611-1.446-16.927-4.415-24.514-8.798c-0.04-0.023-0.082-0.038-0.122-0.06    c-5.446-3.167-10.525-7.047-15.098-11.621c-13.862-13.862-21.496-32.292-21.496-51.896s7.634-38.034,21.496-51.896    c5.308-5.308,11.236-9.626,17.55-12.965c0.178-0.095,0.358-0.185,0.537-0.278c10.563-5.474,22.184-8.218,33.809-8.218    c9.293,0,18.585,1.756,27.335,5.254c0.152,0.061,0.305,0.119,0.456,0.181c0.909,0.37,1.81,0.765,2.706,1.173    c0.357,0.163,0.713,0.333,1.068,0.502c7.356,3.496,14.251,8.271,20.33,14.35c28.615,28.616,28.615,75.176,0,103.792    c-5.753,5.756-12.303,10.418-19.388,13.926C423.399,425.211,423.308,425.239,423.221,425.282z" fill="#ffa800"/>
	</g>
</g>
<g>
	<g>
		<path d="M394.372,352.286v-25.995c8.964,0.64,12.294,4.738,15.367,4.738c3.842,0,5.635-4.866,5.635-7.299    c0-6.275-12.293-8.964-21.001-9.22v-3.458c0-1.537-1.92-2.945-3.841-2.945c-2.177,0-3.714,1.408-3.714,2.945v3.714    c-12.166,1.281-24.331,7.684-24.331,23.819c0,16.391,12.806,21.001,24.331,25.099v30.093c-13.062-1.024-16.519-9.988-20.745-9.988    c-3.202,0-5.891,4.225-5.891,7.299c0,6.275,10.757,14.855,26.636,15.111h-0.001v3.969c0,1.537,1.537,2.945,3.714,2.945    c1.92,0,3.841-1.408,3.841-2.945v-4.354c13.83-1.921,23.306-10.629,23.306-26.38C417.678,362.018,405.513,356.384,394.372,352.286    z M387.587,349.853c-6.788-2.561-12.294-5.25-12.293-12.549c0-6.66,5.122-9.861,12.293-10.757V349.853z M393.605,393.521v-27.02    c6.275,2.689,11.269,6.274,11.269,14.342C404.874,388.143,400.52,392.241,393.605,393.521z" fill="#ffa800"/>
	</g>
</g>
<g>
</g>
<g>
</g>
<g>
</g>
<g>
</g>
<g>
</g>
<g>
</g>
<g>
</g>
<g>
</g>
<g>
</g>
<g>
</g>
<g>
</g>
<g>
</g>
<g>
</g>
<g>
</g>
<g>
</g>
</svg>
