<?xml version="1.0" encoding="iso-8859-1"?>
<!-- Generator: Adobe Illustrator 19.0.0, SVG Export Plug-In . SVG Version: 6.00 Build 0)  -->
<svg xmlns="http://www.w3.org/2000/svg" xmlns:xlink="http://www.w3.org/1999/xlink" version="1.1" id="Capa_1" x="0px" y="0px" viewBox="0 0 512 512" style="enable-background:new 0 0 512 512;" xml:space="preserve" width="512px" height="512px">
<g>
	<g>
		<path d="M398.505,113.495C360.441,75.43,309.831,54.467,256,54.467S151.559,75.43,113.495,113.494    c-78.578,78.578-78.578,206.433,0,285.011c38.064,38.064,88.674,59.027,142.505,59.027    c53.831,0.001,104.441-20.962,142.505-59.026C477.082,319.928,477.082,192.073,398.505,113.495z M388.188,388.188    C352.88,423.497,305.934,442.943,256,442.943c-49.934,0-96.88-19.446-132.188-54.755c-72.889-72.889-72.889-191.487,0-264.376    C159.12,88.503,206.066,69.057,256,69.057s96.88,19.446,132.188,54.755c35.309,35.308,54.755,82.254,54.755,132.188    S423.497,352.88,388.188,388.188z" fill="#ffa800"/>
	</g>
</g>
<g>
	<g>
		<path d="M416.675,56.692c-3.138-2.532-7.73-2.04-10.259,1.094c-2.53,3.136-2.04,7.728,1.094,10.259    c57.133,46.114,89.9,114.621,89.9,187.955c0,64.483-25.111,125.106-70.707,170.703C381.105,472.299,320.482,497.41,256,497.41    c-40.426,0-80.421-10.186-115.659-29.456c-3.535-1.934-7.968-0.635-9.901,2.9c-1.933,3.535-0.635,7.968,2.9,9.901    C170.719,501.196,213.134,512,256,512c68.38,0,132.667-26.629,181.019-74.981C485.371,388.667,512,324.38,512,256    C512,178.235,477.255,105.59,416.675,56.692z" fill="#ffa800"/>
	</g>
</g>
<g>
	<g>
		<path d="M376.928,30.307C339.999,10.48,298.182,0,256,0C187.62,0,123.333,26.629,74.981,74.981S0,187.62,0,256    c0,76.948,34.149,149.107,93.69,197.978c1.357,1.114,2.995,1.657,4.624,1.657c2.109,0,4.201-0.91,5.643-2.667    c2.556-3.115,2.104-7.711-1.01-10.267C46.795,396.612,14.59,328.562,14.59,256c0-64.483,25.111-125.106,70.707-170.703    C130.894,39.701,191.517,14.59,256,14.59c39.782,0,79.212,9.88,114.026,28.571c3.551,1.908,7.973,0.574,9.878-2.976    C381.81,36.635,380.478,32.213,376.928,30.307z" fill="#ffa800"/>
	</g>
</g>
<g>
	<g>
		<path d="M256,21.585c-4.029,0-7.295,3.266-7.295,7.295v11.709c0,4.029,3.266,7.295,7.295,7.295s7.295-3.266,7.295-7.295V28.88    C263.295,24.851,260.029,21.585,256,21.585z" fill="#ffa800"/>
	</g>
</g>
<g>
	<g>
		<path d="M256,464.116c-4.029,0-7.295,3.265-7.295,7.295v11.709c0,4.029,3.266,7.295,7.295,7.295s7.295-3.266,7.295-7.295v-11.709    C263.295,467.382,260.029,464.116,256,464.116z" fill="#ffa800"/>
	</g>
</g>
<g>
	<g>
		<path d="M483.12,248.705h-11.71c-4.029,0-7.295,3.266-7.295,7.295s3.266,7.295,7.295,7.295h11.71c4.029,0,7.295-3.266,7.295-7.295    C490.415,251.971,487.149,248.705,483.12,248.705z" fill="#ffa800"/>
	</g>
</g>
<g>
	<g>
		<path d="M40.589,248.705H28.88c-4.029,0-7.295,3.266-7.295,7.295s3.266,7.295,7.295,7.295h11.709c4.028,0,7.295-3.266,7.295-7.295    S44.618,248.705,40.589,248.705z" fill="#ffa800"/>
	</g>
</g>
<g>
	<g>
		<path d="M421.757,90.243c-2.85-2.848-7.468-2.848-10.318,0l-8.279,8.279c-2.849,2.85-2.849,7.468,0,10.318    c1.425,1.424,3.292,2.136,5.159,2.136s3.734-0.712,5.159-2.136l8.279-8.279C424.606,97.711,424.606,93.093,421.757,90.243z" fill="#ffa800"/>
	</g>
</g>
<g>
	<g>
		<path d="M108.839,403.16c-2.848-2.848-7.468-2.848-10.316,0l-8.279,8.279c-2.849,2.85-2.849,7.468,0,10.318    c1.424,1.424,3.291,2.136,5.158,2.136c1.867,0,3.734-0.712,5.158-2.136l8.279-8.279    C111.688,410.628,111.688,406.01,108.839,403.16z" fill="#ffa800"/>
	</g>
</g>
<g>
	<g>
		<path d="M421.757,411.439l-8.279-8.279c-2.85-2.848-7.469-2.848-10.318,0c-2.849,2.85-2.849,7.468,0,10.318l8.279,8.279    c1.425,1.424,3.292,2.136,5.159,2.136s3.734-0.712,5.159-2.136C424.606,418.907,424.606,414.289,421.757,411.439z" fill="#ffa800"/>
	</g>
</g>
<g>
	<g>
		<path d="M108.838,98.522l-8.279-8.279c-2.848-2.847-7.467-2.847-10.316,0c-2.849,2.85-2.849,7.468,0,10.318l8.279,8.279    c1.424,1.424,3.291,2.136,5.158,2.136s3.734-0.712,5.158-2.136C111.687,105.99,111.687,101.372,108.838,98.522z" fill="#ffa800"/>
	</g>
</g>
<g>
	<g>
		<path d="M350.176,41.333c-3.688-1.615-7.993,0.061-9.612,3.75l-4.705,10.722c-1.619,3.689,0.06,7.992,3.749,9.612    c0.954,0.418,1.948,0.616,2.928,0.616c2.807,0,5.484-1.63,6.684-4.366l4.705-10.722C355.544,47.256,353.865,42.953,350.176,41.333    z" fill="#ffa800"/>
	</g>
</g>
<g>
	<g>
		<path d="M172.39,446.582c-3.689-1.616-7.992,0.061-9.611,3.751l-4.704,10.722c-1.619,3.689,0.06,7.992,3.75,9.611    c0.954,0.418,1.948,0.616,2.927,0.616c2.808,0,5.484-1.63,6.684-4.367l4.704-10.722    C177.759,452.504,176.08,448.201,172.39,446.582z" fill="#ffa800"/>
	</g>
</g>
<g>
	<g>
		<path d="M466.916,340.563l-10.722-4.704c-3.689-1.618-7.992,0.059-9.612,3.749c-1.619,3.689,0.06,7.992,3.749,9.612l10.722,4.705    c0.954,0.418,1.948,0.616,2.928,0.616c2.807,0,5.484-1.63,6.684-4.366C472.284,346.486,470.605,342.183,466.916,340.563z" fill="#ffa800"/>
	</g>
</g>
<g>
	<g>
		<path d="M61.668,162.779l-10.722-4.705c-3.69-1.616-7.993,0.06-9.612,3.749c-1.619,3.689,0.06,7.992,3.749,9.612l10.722,4.705    c0.954,0.419,1.949,0.617,2.928,0.617c2.807,0,5.484-1.63,6.684-4.366C67.036,168.702,65.357,164.399,61.668,162.779z" fill="#ffa800"/>
	</g>
</g>
<g>
	<g>
		<path d="M474.383,170.8c-1.464-3.752-5.692-5.606-9.447-4.145l-10.908,4.255c-3.754,1.465-5.609,5.695-4.145,9.447    c1.125,2.883,3.88,4.646,6.798,4.646c0.882,0,1.778-0.161,2.649-0.501l10.908-4.255    C473.992,178.782,475.847,174.552,474.383,170.8z" fill="#ffa800"/>
	</g>
</g>
<g>
	<g>
		<path d="M62.116,331.642c-1.464-3.753-5.694-5.606-9.447-4.145l-10.908,4.255c-3.753,1.465-5.61,5.695-4.145,9.448    c1.125,2.882,3.88,4.645,6.798,4.645c0.881,0,1.779-0.161,2.649-0.501l10.908-4.255C61.724,339.624,63.581,335.394,62.116,331.642    z" fill="#ffa800"/>
	</g>
</g>
<g>
	<g>
		<path d="M345.343,464.936l-4.255-10.908c-1.464-3.754-5.691-5.608-9.447-4.145c-3.754,1.465-5.609,5.695-4.145,9.448l4.255,10.908    c1.125,2.883,3.88,4.646,6.798,4.646c0.881,0,1.778-0.161,2.649-0.501C344.952,472.919,346.807,468.689,345.343,464.936z" fill="#ffa800"/>
	</g>
</g>
<g>
	<g>
		<path d="M184.503,52.669l-4.256-10.908c-1.464-3.753-5.695-5.605-9.448-4.145c-3.753,1.465-5.609,5.695-4.144,9.447l4.256,10.908    c1.124,2.883,3.88,4.646,6.798,4.646c0.881,0,1.779-0.161,2.65-0.501C184.112,60.651,185.968,56.421,184.503,52.669z" fill="#ffa800"/>
	</g>
</g>
<g>
	<g>
		<g>
			<path d="M230.265,239.647h41.163c27.362,0,42.431-15.316,42.431-43.127c0-25.869-15.719-40.705-43.125-40.705h-40.469     c-4.142,0-7.5,3.357-7.5,7.5v68.832C222.765,236.29,226.123,239.647,230.265,239.647z M237.766,170.815h32.969     c25.21,0,28.125,14.67,28.125,25.705c0,19.715-8.204,28.127-27.432,28.127h-33.662V170.815z" fill="#ffa800"/>
			<path d="M273.502,253.701h-43.237c-4.142,0-7.5,3.357-7.5,7.5v89.931c0,4.143,3.358,7.5,7.5,7.5h43.237     c30.041,0,46.585-17.896,46.585-50.39v-5.534C320.087,270.189,304.413,253.701,273.502,253.701z M305.087,308.242     c0,24.145-10.036,35.39-31.585,35.39h-35.737v-74.931h35.737c22.435,0,31.585,9.853,31.585,34.007V308.242z" fill="#ffa800"/>
			<path d="M329.024,245.774c13.816-11.767,21.502-31.108,21.502-55.135c0-33.429-14.079-54.591-41.869-62.988v-10.354     c0-13.033-10.604-23.637-23.637-23.637c-13.033,0-23.637,10.604-23.637,23.637v6.006h-2.644v-6.006     c0-13.033-10.603-23.637-23.636-23.637c-13.033,0-23.637,10.604-23.637,23.637v6.006h-17.069     c-13.541,0-24.557,11.016-24.557,24.557c0,10.85,6.88,19.976,16.61,23.248v172.231c-9.731,3.272-16.61,12.398-16.61,23.248     c0,13.541,11.016,24.558,24.557,24.558h17.069v6.853c0,13.033,10.603,23.637,23.637,23.637c13.033,0,23.636-10.604,23.636-23.637     v-6.853h2.644v6.853c0,13.033,10.604,23.637,23.637,23.637s23.636-10.604,23.637-23.638v-10.22     c14.238-3.981,25.49-11.51,33.502-22.438c9.683-13.204,14.592-31.484,14.592-54.332v-6.572     C356.751,270.579,343.685,254.622,329.024,245.774z M341.751,311.01c0,37.083-13.758,57.852-42.061,63.497     c-3.508,0.7-6.033,3.779-6.033,7.355v16.137c0,4.763-3.874,8.637-8.637,8.637s-8.637-3.874-8.637-8.637v-14.353     c0-4.143-3.357-7.5-7.5-7.5H251.24c-4.142,0-7.5,3.357-7.5,7.501V398c0,4.763-3.875,8.637-8.637,8.637     c-4.762,0-8.637-3.874-8.637-8.637v-14.353c0-4.143-3.358-7.5-7.5-7.5h-24.569c-5.27,0-9.557-4.287-9.557-9.558     c0-5.212,4.087-9.401,9.305-9.537c4.065-0.105,7.305-3.431,7.305-7.497V164.896c0-4.066-3.24-7.392-7.305-7.497     c-5.218-0.136-9.305-4.325-9.305-9.537c0-5.27,4.287-9.557,9.557-9.557h24.569c4.142,0,7.5-3.357,7.5-7.5v-13.506     c0-4.763,3.874-8.637,8.637-8.637c4.762,0,8.637,3.874,8.637,8.637v13.506c0,4.143,3.358,7.5,7.5,7.5h17.644     c4.143,0,7.5-3.357,7.5-7.5v-13.506c0-4.763,3.874-8.637,8.637-8.637s8.637,3.874,8.637,8.637v16.137     c0,3.508,2.432,6.548,5.856,7.317c24.907,5.594,36.013,20.981,36.013,49.889c0,24.6-8.856,42.064-24.935,49.175     c-2.775,1.227-4.536,4.004-4.465,7.036s1.962,5.722,4.791,6.817c18.507,7.164,30.833,18.539,30.833,50.768V311.01z" fill="#ffa800"/>
		</g>
	</g>
</g>
<g>
</g>
<g>
</g>
<g>
</g>
<g>
</g>
<g>
</g>
<g>
</g>
<g>
</g>
<g>
</g>
<g>
</g>
<g>
</g>
<g>
</g>
<g>
</g>
<g>
</g>
<g>
</g>
<g>
</g>
</svg>
