<?xml version="1.0" encoding="iso-8859-1"?>
<!-- Generator: Adobe Illustrator 19.0.0, SVG Export Plug-In . SVG Version: 6.00 Build 0)  -->
<svg xmlns="http://www.w3.org/2000/svg" xmlns:xlink="http://www.w3.org/1999/xlink" version="1.1" id="Capa_1" x="0px" y="0px" viewBox="0 0 512 512" style="enable-background:new 0 0 512 512;" xml:space="preserve" width="512px" height="512px">
<g>
	<g>
		<path d="M463.852,335.015c-4.015-0.35-7.568,2.632-7.917,6.656c-2.658,30.706-16.143,59.638-37.972,81.467    c-51.201,51.202-134.513,51.203-185.717,0c-51.202-51.203-51.202-134.514,0-185.717s134.515-51.203,185.717,0    c16.552,16.552,28.391,37.205,34.238,59.729c1.015,3.909,5.006,6.257,8.918,5.241c3.909-1.015,6.256-5.007,5.242-8.917    c-6.502-25.043-19.66-48.003-38.053-66.396c-56.906-56.906-149.499-56.906-206.404,0c-56.905,56.905-56.905,149.498,0,206.403    c28.453,28.453,65.827,42.679,103.202,42.679s74.749-14.227,103.202-42.679c24.259-24.26,39.247-56.417,42.2-90.549    C470.856,338.908,467.876,335.363,463.852,335.015z" fill="#ffa800"/>
	</g>
</g>
<g>
	<g>
		<path d="M325.105,148.559c-48.614,0-92.829,19.19-125.472,50.391l0.001-0.001H47.618c-15.337,0-27.815-12.478-27.815-27.815    v-29.216c0-15.337,12.478-27.815,27.815-27.815h242.358c12.254,0,22.931,7.853,26.567,19.542c1.199,3.856,5.298,6.011,9.156,4.811    c3.857-1.2,6.011-5.299,4.811-9.156c-2.947-9.474-8.922-17.296-16.679-22.55c11.214-7.647,18.589-20.522,18.589-35.09V42.443    C332.419,19.04,313.379,0,289.976,0H47.618C24.215,0,5.175,19.04,5.175,42.443v29.216c0,14.591,7.402,27.487,18.647,35.129    c-11.245,7.642-18.647,20.538-18.647,35.129v29.216c0,14.591,7.402,27.487,18.647,35.129    c-11.245,7.643-18.647,20.538-18.647,35.13v29.217c0,14.591,7.402,27.486,18.647,35.129    c-11.245,7.642-18.647,20.538-18.647,35.129v29.216c0,14.591,7.402,27.487,18.647,35.129    c-11.245,7.642-18.647,20.538-18.647,35.129v29.216C5.175,492.96,24.215,512,47.618,512h190.828c4.039,0,7.314-3.275,7.314-7.314    s-3.275-7.314-7.314-7.314H47.618c-15.337,0-27.815-12.478-27.815-27.815v-29.216c0-15.337,12.478-27.815,27.815-27.815h115.471    C193.153,471.508,254.487,512,325.105,512c100.201,0,181.72-81.52,181.72-181.721    C506.825,230.079,425.305,148.559,325.105,148.559z M19.803,71.659V42.443c0-15.337,12.478-27.815,27.815-27.815h242.358    c15.337,0,27.815,12.478,27.815,27.815v29.216c0,15.337-12.478,27.815-27.815,27.815H47.618    C32.281,99.475,19.803,86.997,19.803,71.659z M19.803,270.608v-29.217c0-15.337,12.478-27.815,27.815-27.815h138.311    c-20.039,23.859-34.047,52.927-39.716,84.846H47.618C32.281,298.423,19.803,285.945,19.803,270.608z M19.803,370.083v-29.216    c0-15.337,12.478-27.815,27.815-27.815h96.588c-0.536,5.673-0.822,11.418-0.822,17.228c0,23.886,4.642,46.707,13.055,67.618    H47.618C32.281,397.898,19.803,385.42,19.803,370.083z M325.105,497.372c-92.135,0-167.093-74.957-167.093-167.093    c0-92.135,74.957-167.092,167.093-167.092s167.092,74.957,167.092,167.092C492.197,422.415,417.24,497.372,325.105,497.372z" fill="#ffa800"/>
	</g>
</g>
<g>
	<g>
		<path d="M338.124,316.091l-1.31-0.481v-53.718l2.143,0.153c10.996,0.786,17.756,4.169,22.692,6.639    c2.794,1.397,5,2.501,6.825,2.501c6.235,0,8.875-8.648,8.875-12.088c0-5.663-6.873-9.309-12.639-11.372    c-6.985-2.499-16.688-4.154-25.955-4.426l-1.941-0.057v-8.615c0-1.624-2.549-3.685-5.414-3.685c-3.192,0-5.168,1.913-5.168,3.685    v8.968l-1.791,0.188c-13.581,1.43-45.171,8.578-45.171,43.984c0,30.335,23.198,38.583,45.632,46.56l1.33,0.473v61.657    l-2.156-0.169c-16.432-1.289-25.205-8.752-31.609-14.201c-3.331-2.834-5.962-5.072-8.275-5.072c-4.737,0-9.369,6.922-9.369,12.089    c0,5.45,5.09,12.059,13.282,17.25c9.748,6.176,22.59,9.698,36.16,9.917l1.968,0.032v9.629c0,1.772,1.976,3.685,5.168,3.685    c2.866,0,5.414-2.06,5.413-3.685v-10.145l1.725-0.239c27.897-3.874,43.26-21.253,43.26-48.935    C381.799,334.816,360.223,324.219,338.124,316.091z M327.717,312.409l-2.706-1.021c-13.186-4.975-25.022-10.715-25.022-26.093    c0-12.615,9.048-20.693,25.48-22.746l2.248-0.282V312.409z M337.697,395.767l-2.364,0.438v-57.589l2.788,1.194    c11.355,4.866,22.962,12.179,22.962,29.521C361.083,383.586,352.777,392.975,337.697,395.767z" fill="#ffa800"/>
	</g>
</g>
<g>
</g>
<g>
</g>
<g>
</g>
<g>
</g>
<g>
</g>
<g>
</g>
<g>
</g>
<g>
</g>
<g>
</g>
<g>
</g>
<g>
</g>
<g>
</g>
<g>
</g>
<g>
</g>
<g>
</g>
</svg>
