<?xml version="1.0" encoding="iso-8859-1"?>
<!-- Generator: Adobe Illustrator 19.0.0, SVG Export Plug-In . SVG Version: 6.00 Build 0)  -->
<svg xmlns="http://www.w3.org/2000/svg" xmlns:xlink="http://www.w3.org/1999/xlink" version="1.1" id="Capa_1" x="0px" y="0px" viewBox="0 0 512 512" style="enable-background:new 0 0 512 512;" xml:space="preserve" width="512px" height="512px">
<g>
	<g>
		<path d="M337.418,360.754c-4.029,0-7.294,3.266-7.294,7.295V482.1c0,8.443-6.869,15.312-15.312,15.312H53.083    c-8.443,0-15.311-6.869-15.311-15.312V29.901c0-8.443,6.868-15.312,15.311-15.312h261.729c8.443,0,15.312,6.869,15.312,15.312    v70.73c0,4.029,3.265,7.295,7.294,7.295s7.294-3.266,7.294-7.295v-70.73C344.713,13.414,331.3,0,314.812,0H53.083    c-16.487,0-29.9,13.414-29.9,29.901v452.198c0,16.487,13.413,29.901,29.9,29.901h261.729c16.488,0,29.901-13.414,29.901-29.901    V368.048C344.713,364.019,341.447,360.754,337.418,360.754z" fill="#ffa800"/>
	</g>
</g>
<g>
	<g>
		<path d="M183.948,439.01c-14.748,0.001-26.747,11.999-26.747,26.747s11.999,26.746,26.747,26.746s26.747-11.998,26.747-26.746    C210.695,451.009,198.696,439.01,183.948,439.01z M183.947,477.915c-6.704,0-12.158-5.454-12.158-12.158    s5.454-12.158,12.158-12.158c6.705,0.001,12.158,5.455,12.158,12.158C196.105,472.461,190.651,477.915,183.947,477.915z" fill="#ffa800"/>
	</g>
</g>
<g>
	<g>
		<path d="M289.256,163.25c-38.82,0-70.402,31.582-70.402,70.402s31.582,70.402,70.402,70.402s70.402-31.582,70.402-70.402    S328.077,163.25,289.256,163.25z M289.256,289.466c-30.776,0-55.813-25.038-55.813-55.813c0-30.775,25.038-55.813,55.813-55.813    c30.775,0,55.813,25.038,55.813,55.813C345.069,264.428,320.032,289.466,289.256,289.466z" fill="#ffa800"/>
	</g>
</g>
<g>
	<g>
		<path d="M307.219,360.752c-4.029,0-7.294,3.266-7.294,7.295v48.813c0,1.131-0.92,2.051-2.051,2.051H70.022    c-1.131,0-2.052-0.92-2.052-2.051V82.715h231.953v17.915c0.001,4.029,3.266,7.294,7.295,7.294s7.294-3.266,7.294-7.295V45.267    c0-9.176-7.465-16.64-16.64-16.64H70.022c-9.176,0-16.641,7.465-16.641,16.64V416.86c0,9.175,7.465,16.64,16.641,16.64h227.851    c9.175,0,16.64-7.465,16.64-16.64v-48.813C314.513,364.018,311.248,360.752,307.219,360.752z M67.971,45.267    c0-0.989,0.705-1.818,1.639-2.009c0.133-0.027,0.272-0.042,0.413-0.042h227.851c0.141,0,0.279,0.014,0.413,0.042    c0.933,0.192,1.638,1.02,1.638,2.009v22.859H67.971V45.267z" fill="#ffa800"/>
	</g>
</g>
<g>
	<g>
		<path d="M464.664,116.739H191.242v-15.141c0-4.029-3.265-7.295-7.295-7.295c-4.029,0-7.294,3.266-7.294,11.295v259.155    c0,0.029,3.265,3.295,7.294,3.295s7.295-3.266,7.295-7.295v-10.187h273.421c13.318,0,24.154-10.835,24.154-24.153v-185.52    C488.817,127.574,477.982,116.739,464.664,116.739z M191.242,155.857h232.449c5.845,12.957,16.07,23.284,28.965,29.253v97.086    c-12.896,5.97-23.12,16.296-28.965,29.254H191.242V155.857z M474.228,326.413c0,5.274-4.29,9.564-9.565,9.564H191.242v-9.939    h233.502c5.196,0,9.869-3.068,11.906-7.816c4.446-10.371,12.579-18.586,22.901-23.133c4.674-2.059,7.694-6.711,7.694-11.853    v-99.168c0-5.14-3.019-9.792-7.693-11.852h-0.001c-10.322-4.547-18.455-12.762-22.901-23.131    c-2.034-4.749-6.708-7.818-11.906-7.818H191.242v-9.94h273.421c5.274,0,9.565,4.291,9.565,9.565V326.413z" fill="#ffa800"/>
	</g>
</g>
<g>
	<g>
		<path d="M294.01,227.763v-22.706c7.83,0.559,10.738,4.138,13.422,4.138c3.356,0,4.922-4.25,4.922-6.375    c0-5.48-10.738-7.829-18.344-8.053v-3.02c0-1.343-1.677-2.573-3.355-2.573c-1.902,0-3.244,1.231-3.244,2.573v3.244    c-10.626,1.118-21.252,6.711-21.252,20.804c0,14.317,11.186,18.344,21.252,21.923v26.285c-11.409-0.894-14.429-8.724-18.12-8.724    c-2.796,0-5.145,3.691-5.145,6.376c0,5.481,9.395,12.975,23.265,13.199v3.466c0,1.343,1.342,2.573,3.244,2.573    c1.677,0,3.355-1.231,3.355-2.573v-3.803c12.08-1.677,20.357-9.283,20.357-23.041C314.367,236.264,303.741,231.342,294.01,227.763    z M288.082,225.639c-5.928-2.237-10.737-4.586-10.738-10.962c0-5.816,4.474-8.612,10.738-9.395V225.639z M293.339,263.781V240.18    c5.481,2.348,9.843,5.48,9.843,12.528C303.182,259.083,299.379,262.663,293.339,263.781z" fill="#ffa800"/>
	</g>
</g>
<g>
</g>
<g>
</g>
<g>
</g>
<g>
</g>
<g>
</g>
<g>
</g>
<g>
</g>
<g>
</g>
<g>
</g>
<g>
</g>
<g>
</g>
<g>
</g>
<g>
</g>
<g>
</g>
<g>
</g>
</svg>
