<?xml version="1.0" encoding="iso-8859-1"?>
<!-- Generator: Adobe Illustrator 19.0.0, SVG Export Plug-In . SVG Version: 6.00 Build 0)  -->
<svg xmlns="http://www.w3.org/2000/svg" xmlns:xlink="http://www.w3.org/1999/xlink" version="1.1" id="Capa_1" x="0px" y="0px" viewBox="0 0 512.001 512.001" style="enable-background:new 0 0 512.001 512.001;" xml:space="preserve" width="512px" height="512px">
<g>
	<g>
		<path d="M104.867,413.973c-4.13-8.922-11.487-15.701-20.716-19.09c-19.052-6.995-40.243,2.812-47.238,21.865    c-3.389,9.229-2.98,19.226,1.15,28.148s11.487,15.702,20.716,19.09c4.171,1.532,8.444,2.258,12.649,2.258    c15,0,29.126-9.242,34.589-24.123C109.406,432.892,108.997,422.895,104.867,413.973z M92.452,437.141    c-4.249,11.573-17.122,17.528-28.694,13.282c-5.606-2.058-10.075-6.177-12.583-11.596c-2.508-5.42-2.756-11.492-0.698-17.098    c2.058-5.606,6.176-10.075,11.596-12.583c2.991-1.385,6.179-2.081,9.379-2.081c2.599,0,5.206,0.46,7.718,1.382    c5.606,2.058,10.075,6.177,12.583,11.596C94.263,425.463,94.511,431.535,92.452,437.141z" fill="#ffa800"/>
	</g>
</g>
<g>
	<g>
		<path d="M504.776,248.688c3.99,0,7.225-3.234,7.225-7.225V83.514c0-10.432-8.486-18.918-18.918-18.918h-212.55    c1.401-9.403,0.011-19.009-4.139-27.817c-5.596-11.878-15.5-20.818-27.885-25.176c-3.718-1.306-7.794,0.603-9.168,4.294    l-18.134,48.699H115.514l-18.134-48.7c-1.374-3.691-5.453-5.599-9.168-4.294c-12.386,4.357-22.288,13.299-27.885,25.177    c-4.15,8.807-5.539,18.413-4.139,27.817H41.271c-10.431,0-18.918,8.486-18.918,18.918v225.831    c0,10.432,8.486,18.918,18.918,18.918h81.755l-14.859,39.903c-4.589-2.751-9.476-4.976-14.61-6.648    c-35.647-11.607-74.47,6.554-88.388,41.35c-7.228,18.07-6.865,37.799,1.022,55.554c7.889,17.762,22.27,31.257,40.492,37.997    c7.925,2.931,16.164,4.39,24.405,4.39c10.153-0.001,20.307-2.216,29.857-6.624c17.722-8.177,31.189-22.777,37.92-41.109    l29.494-80.261l29.494,80.26c6.731,18.333,20.198,32.933,37.919,41.11c9.552,4.407,19.704,6.624,29.858,6.624    c8.239,0,16.481-1.459,24.405-4.39c18.223-6.74,32.603-20.234,40.493-37.996c7.887-17.755,8.25-37.484,1.022-55.554    c-13.918-34.796-52.746-52.957-88.388-41.35c-5.134,1.672-10.021,3.897-14.61,6.648l-14.859-39.903h279.389    c10.431,0,18.918-8.486,18.918-18.918v-21.882c0-3.991-3.235-7.225-7.225-7.225s-7.225,3.234-7.225,7.225v21.882    c0,2.464-2.004,4.468-4.468,4.468h-303.04l86.272-234.768h216.768c2.464,0,4.468,2.005,4.468,4.468v157.95    C497.551,245.454,500.786,248.688,504.776,248.688z M73.398,42.937c2.909-6.173,7.471-11.218,13.17-14.667l13.527,36.325H70.862    C69.311,57.324,70.171,49.787,73.398,42.937z M41.271,313.812L41.271,313.812c-2.464,0.001-4.468-2.004-4.468-4.467V83.514    c0-2.464,2.004-4.468,4.468-4.468h116.042v19.248c0,3.991,3.235,7.225,7.225,7.225c3.99,0,7.225-3.234,7.225-7.225V79.045h44.064    L171.762,197.38v-53.669c0-3.991-3.235-7.225-7.225-7.225s-7.225,3.234-7.225,7.225v92.474l-28.906,77.627H41.271z     M198.276,328.263v-0.001l19.984,53.667c0.81,2.175,2.615,3.829,4.853,4.445c2.238,0.612,4.635,0.119,6.444-1.335    c5.404-4.344,11.487-7.635,18.081-9.782c28.431-9.259,59.397,5.226,70.498,32.976c5.768,14.42,5.479,30.16-0.811,44.323    c-6.294,14.169-17.765,24.933-32.301,30.309c-14.064,5.202-29.405,4.562-43.196-1.801c-14.211-6.557-25.01-18.266-30.41-32.972    l-35.36-96.223l8.675-23.606H198.276z M264.491,69.328L125.303,448.094c-5.399,14.705-16.199,26.414-30.41,32.971    c-13.793,6.365-29.133,7.004-43.195,1.801c-14.535-5.376-26.007-16.141-32.3-30.31c-6.291-14.163-6.579-29.903-0.811-44.323    c8.834-22.085,30.249-35.767,52.957-35.767c5.825,0,11.736,0.9,17.541,2.791c6.594,2.147,12.677,5.438,18.08,9.782    c1.809,1.453,4.206,1.948,6.444,1.335c2.238-0.616,4.044-2.27,4.853-4.445l21.735-58.368c0-0.001,0.001-0.002,0.001-0.002    L250.153,28.27c5.699,3.449,10.262,8.494,13.17,14.667C267.258,51.289,267.673,60.662,264.491,69.328z" fill="#ffa800"/>
	</g>
</g>
<g>
	<g>
		<path d="M299.808,416.748c-6.996-19.053-28.186-28.864-47.239-21.865c-19.051,6.996-28.86,28.187-21.865,47.238    c5.465,14.882,19.588,24.123,34.59,24.123c4.204,0,8.479-0.726,12.649-2.258c9.229-3.389,16.587-10.168,20.716-19.09    C302.789,435.974,303.197,425.977,299.808,416.748z M285.545,438.827c-2.508,5.42-6.977,9.538-12.583,11.596    c-11.573,4.245-24.444-1.71-28.694-13.282c-4.248-11.572,1.71-24.444,13.282-28.694c2.534-0.929,5.129-1.371,7.683-1.371    c9.112,0,17.691,5.614,21.01,14.653C288.302,427.335,288.054,433.407,285.545,438.827z" fill="#ffa800"/>
	</g>
</g>
<g>
	<g>
		<path d="M105.262,189.307v-33.305c11.485,0.82,15.751,6.07,19.688,6.07c4.922,0,7.219-6.235,7.219-9.352    c0-8.039-15.75-11.485-26.907-11.813v-4.43c0-1.969-2.461-3.774-4.922-3.774c-2.789,0-4.758,1.805-4.758,3.774v4.758    c-15.586,1.642-31.172,9.844-31.172,30.517c0,21,16.406,26.907,31.172,32.157v38.555c-16.735-1.312-21.165-12.797-26.579-12.797    c-4.102,0-7.547,5.414-7.547,9.352c0,8.039,13.782,19.032,34.126,19.36v5.086c0,1.969,1.969,3.774,4.758,3.774    c2.461,0,4.922-1.805,4.922-3.774v-5.578c17.719-2.461,29.86-13.618,29.86-33.798    C135.122,201.776,119.536,194.557,105.262,189.307z M96.567,186.189c-8.696-3.281-15.751-6.726-15.75-16.079    c0-8.531,6.562-12.633,15.75-13.781V186.189z M104.278,242.136v-34.618c8.039,3.445,14.438,8.039,14.438,18.375    C118.716,235.245,113.138,240.495,104.278,242.136z" fill="#ffa800"/>
	</g>
</g>
<g>
	<g>
		<path d="M303.316,163.268h-42.578c-3.11,0-4.737,3.055-4.737,6.071c0,3.578,1.992,6.174,4.737,6.174h14.756v60.308    c0,2.789,2.708,4.738,6.584,4.738c3.272,0,6.585-1.627,6.585-4.738v-60.308h14.653c2.789,0,4.738-2.581,4.738-6.277    C308.054,166.361,306.571,163.268,303.316,163.268z" fill="#ffa800"/>
	</g>
</g>
<g>
	<g>
		<path d="M385.691,233.642l-20.325-66.512c-0.907-2.72-4.073-4.478-8.064-4.478c-3.93,0-7.055,1.758-7.97,4.504l-20.407,66.456    c-0.162,0.485-0.162,0.929-0.162,1.287c0,3.337,4.173,5.661,7.918,5.661c3.251,0,4.454-1.665,4.898-3.086l3.967-13.739h23.617    l3.974,13.764c0.618,1.974,2.318,3.061,4.789,3.061c3.786,0,8.02-2.421,8.02-5.661C385.946,234.406,385.8,233.967,385.691,233.642    z M348.571,212.719l8.731-29.946l8.731,29.946H348.571z" fill="#ffa800"/>
	</g>
</g>
<g>
	<g>
		<path d="M470.319,231.652l-17.415-29.796l16.915-29.599c0.64-1.153,0.965-2.238,0.965-3.225c0-3.578-4.173-6.071-7.918-6.071    c-2.182,0-4.008,1.327-5.11,3.675l-13.351,24.412l-13.152-24.398c-1.613-3.049-3.673-3.688-5.117-3.688    c-3.794,0-8.021,2.494-8.021,6.071c0,0.986,0.325,2.072,0.972,3.237l16.908,29.587l-17.451,29.863    c-0.495,0.992-0.737,1.864-0.737,2.667c0,3.591,4.444,6.482,8.124,6.482c1.722,0,3.354-1.105,4.493-3.057l13.981-25.472    l14.152,25.433c0.749,1.497,2.301,3.096,4.411,3.096c3.804,0,8.226-2.832,8.226-6.482    C471.194,233.564,470.859,232.725,470.319,231.652z" fill="#ffa800"/>
	</g>
</g>
<g>
</g>
<g>
</g>
<g>
</g>
<g>
</g>
<g>
</g>
<g>
</g>
<g>
</g>
<g>
</g>
<g>
</g>
<g>
</g>
<g>
</g>
<g>
</g>
<g>
</g>
<g>
</g>
<g>
</g>
</svg>
