<?xml version="1.0" encoding="iso-8859-1"?>
<!-- Generator: Adobe Illustrator 19.0.0, SVG Export Plug-In . SVG Version: 6.00 Build 0)  -->
<svg xmlns="http://www.w3.org/2000/svg" xmlns:xlink="http://www.w3.org/1999/xlink" version="1.1" id="Capa_1" x="0px" y="0px" viewBox="0 0 512 512" style="enable-background:new 0 0 512 512;" xml:space="preserve" width="512px" height="512px">
<g>
	<g>
		<path d="M504.52,298.006c-0.001-0.168-0.013-0.337-0.026-0.505c-0.006-0.081-0.009-0.163-0.018-0.243    c-0.016-0.142-0.041-0.284-0.065-0.426c-0.018-0.107-0.033-0.215-0.056-0.32c-0.022-0.103-0.053-0.206-0.079-0.309    c-0.037-0.141-0.073-0.283-0.117-0.421c-0.024-0.074-0.054-0.148-0.081-0.222c-0.059-0.162-0.118-0.323-0.188-0.479    c-0.008-0.018-0.013-0.037-0.022-0.055l-57.593-127.731h42.178c7.335,0,13.302-5.967,13.302-13.302v-17.654    c0-7.335-5.967-13.302-13.302-13.302h-67.877c-12.877,0-24.835-5.185-33.669-14.6c-15.132-16.127-37.023-25.377-60.06-25.377    H280.04V66.607c8.311-6.912,13.612-17.325,13.612-28.954C293.652,16.891,276.76,0,255.999,0s-37.653,16.891-37.653,37.653    c0,11.629,5.301,22.041,13.612,28.954V83.06h-46.806c-23.038,0-44.929,9.25-60.062,25.378c-8.833,9.415-20.79,14.6-33.668,14.6    H23.544c-7.335,0-13.302,5.967-13.302,13.302v17.654c0,7.335,5.967,13.302,13.302,13.302h42.028L8.126,295.033    c-0.008,0.019-0.014,0.038-0.022,0.057c-0.067,0.151-0.124,0.307-0.181,0.464c-0.029,0.079-0.061,0.157-0.086,0.236    c-0.043,0.133-0.077,0.269-0.113,0.406c-0.028,0.108-0.06,0.215-0.083,0.323c-0.021,0.1-0.035,0.203-0.052,0.304    c-0.025,0.147-0.051,0.293-0.067,0.44c-0.008,0.076-0.011,0.154-0.017,0.231c-0.013,0.172-0.025,0.344-0.026,0.516    c0,0.019-0.003,0.038-0.003,0.057v7.267c0,36.931,30.046,66.978,66.978,66.978h5.732c36.932,0,66.978-30.046,66.978-66.978v-7.267    c0-0.022-0.003-0.042-0.003-0.064c-0.001-0.165-0.013-0.33-0.025-0.495c-0.006-0.085-0.009-0.17-0.018-0.253    c-0.015-0.139-0.04-0.279-0.064-0.418c-0.018-0.109-0.034-0.219-0.057-0.326c-0.022-0.103-0.052-0.204-0.079-0.307    c-0.037-0.142-0.073-0.284-0.118-0.423c-0.024-0.075-0.055-0.149-0.082-0.223c-0.058-0.161-0.118-0.321-0.186-0.476    c-0.008-0.019-0.014-0.038-0.022-0.057l-57.594-127.73h5.295c23.036,0,44.926-9.25,60.058-25.378    c8.833-9.415,20.79-14.6,33.668-14.6h44.022v294.917h-76.176c-12.468,0-22.611,10.143-22.611,22.611v13.174h-12.913    c-12.682,0-22.999,10.317-22.999,22.999V504.6c0,4.087,3.313,7.4,7.4,7.4h302.677c4.087,0,7.4-3.313,7.4-7.4v-23.583    c0-12.682-10.317-22.999-22.999-22.999h-12.912v-13.174c0-12.468-10.144-22.611-22.611-22.611H280.04V208.318    c0-4.087-3.313-7.4-7.4-7.4c-4.087,0-7.4,3.313-7.4,7.4v213.915h-18.482V127.317h18.482v34.185c0,4.087,3.313,7.4,7.4,7.4    c4.087,0,7.4-3.313,7.4-7.4v-34.185h46.951c10.585,0,20.951,4.462,28.441,12.244c17.219,17.884,40.353,27.734,65.145,27.734h2.355    l-57.446,127.738c-0.008,0.017-0.013,0.034-0.02,0.051c-0.071,0.16-0.132,0.324-0.191,0.49c-0.025,0.07-0.054,0.139-0.077,0.21    c-0.046,0.142-0.083,0.287-0.12,0.432c-0.026,0.099-0.055,0.198-0.076,0.297c-0.023,0.108-0.038,0.218-0.057,0.328    c-0.023,0.139-0.048,0.278-0.064,0.418c-0.009,0.082-0.012,0.165-0.018,0.248c-0.013,0.167-0.024,0.334-0.025,0.5    c0,0.02-0.003,0.04-0.003,0.06v7.267c0,36.931,30.046,66.978,66.978,66.978h5.733c36.932,0,66.978-30.046,66.978-66.978v-7.267    C504.523,298.047,504.52,298.027,504.52,298.006z M255.999,14.799c12.602,0,22.853,10.252,22.853,22.853    c0,8.089-4.228,15.204-10.587,19.267c-0.278,0.178-0.559,0.349-0.843,0.514c-0.146,0.085-0.291,0.171-0.439,0.253    c-0.391,0.215-0.787,0.419-1.189,0.61c-0.141,0.067-0.284,0.129-0.426,0.193c-0.32,0.144-0.642,0.281-0.967,0.41    c-0.138,0.055-0.274,0.111-0.413,0.163c-0.435,0.162-0.873,0.312-1.317,0.448c-0.117,0.036-0.237,0.067-0.355,0.101    c-0.371,0.107-0.744,0.204-1.12,0.292c-0.126,0.029-0.251,0.06-0.378,0.087c-0.474,0.102-0.95,0.191-1.43,0.263    c-0.079,0.012-0.159,0.02-0.238,0.03c-0.417,0.058-0.837,0.103-1.258,0.138c-0.132,0.011-0.265,0.022-0.398,0.03    c-0.496,0.032-0.994,0.054-1.494,0.054c-0.5,0-0.998-0.022-1.494-0.054c-0.133-0.009-0.266-0.02-0.398-0.03    c-0.421-0.035-0.84-0.08-1.257-0.138c-0.08-0.011-0.16-0.019-0.24-0.031c-0.48-0.072-0.956-0.161-1.429-0.263    c-0.128-0.028-0.254-0.059-0.382-0.088c-0.374-0.087-0.745-0.184-1.113-0.29c-0.12-0.035-0.242-0.066-0.362-0.103    c-0.441-0.135-0.878-0.284-1.311-0.446c-0.143-0.053-0.283-0.112-0.425-0.168c-0.32-0.127-0.636-0.261-0.95-0.403    c-0.147-0.066-0.295-0.13-0.44-0.199c-0.398-0.19-0.791-0.391-1.178-0.604c-0.154-0.085-0.305-0.175-0.457-0.263    c-0.276-0.16-0.549-0.326-0.818-0.498c-6.366-4.061-10.6-11.181-10.6-19.275C233.146,25.051,243.398,14.799,255.999,14.799z     M265.241,74.159v8.901h-18.482v-8.901c0.121,0.031,0.245,0.051,0.366,0.08c0.559,0.136,1.122,0.26,1.69,0.37    c0.186,0.036,0.373,0.067,0.559,0.1c0.573,0.102,1.15,0.191,1.731,0.267c0.133,0.017,0.266,0.035,0.399,0.051    c1.475,0.176,2.973,0.278,4.495,0.278c0.785,0,1.563-0.032,2.336-0.08c0.004,0,0.008-0.001,0.012-0.001    c0.719-0.044,1.431-0.111,2.138-0.196c0.141-0.017,0.281-0.036,0.421-0.054c0.573-0.075,1.143-0.163,1.708-0.264    c0.192-0.034,0.384-0.066,0.575-0.103c0.568-0.11,1.131-0.235,1.689-0.371C264.999,74.209,265.121,74.189,265.241,74.159z     M80.186,357.513h-5.732c-28.728,0-52.107-23.335-52.179-52.046h110.09C132.293,334.178,108.913,357.513,80.186,357.513z     M128.311,290.668H26.316l50.93-113.25L128.311,290.668z M356.215,437.033c4.308,0,7.812,3.504,7.812,7.812v13.174H209.52    c-4.087,0-7.4,3.313-7.4,7.4c0,4.087,3.313,7.4,7.4,7.4h182.219c4.521,0,8.199,3.678,8.199,8.199v16.183H112.06v-16.183    c0-4.521,3.678-8.199,8.199-8.199h42.002c4.087,0,7.4-3.313,7.4-7.4c0-4.087-3.313-7.4-7.4-7.4H147.97v-13.174    c0-4.307,3.504-7.812,7.812-7.812H356.215z M420.577,152.495c-20.732,0-40.081-8.239-54.483-23.199    c-10.265-10.663-24.518-16.779-39.104-16.779H187.937c-17.011,0-32.8,6.845-44.461,19.274    c-12.345,13.158-30.302,20.704-49.265,20.704H25.043v-14.658h66.38c17.011,0,32.8-6.845,44.461-19.273    c12.346-13.158,30.304-20.705,49.269-20.705h141.695c18.965,0,36.922,7.547,49.268,20.706    c11.662,12.428,27.452,19.272,44.462,19.272h66.379v14.658H420.577z M434.606,177.418l51.064,113.25H383.676L434.606,177.418z     M437.546,357.513h-5.733c-28.728,0-52.107-23.335-52.178-52.046h110.089C489.652,334.178,466.273,357.513,437.546,357.513z" fill="#ffa800"/>
	</g>
</g>
<g>
</g>
<g>
</g>
<g>
</g>
<g>
</g>
<g>
</g>
<g>
</g>
<g>
</g>
<g>
</g>
<g>
</g>
<g>
</g>
<g>
</g>
<g>
</g>
<g>
</g>
<g>
</g>
<g>
</g>
</svg>
