<?xml version="1.0" encoding="iso-8859-1"?>
<!-- Generator: Adobe Illustrator 19.0.0, SVG Export Plug-In . SVG Version: 6.00 Build 0)  -->
<svg xmlns="http://www.w3.org/2000/svg" xmlns:xlink="http://www.w3.org/1999/xlink" version="1.1" id="Capa_1" x="0px" y="0px" viewBox="0 0 512 512" style="enable-background:new 0 0 512 512;" xml:space="preserve" width="512px" height="512px">
<g>
	<g>
		<path d="M255.482,14.514c-4.217,0-7.636,3.419-7.636,7.636v40.497c0,4.218,3.419,7.636,7.636,7.636    c4.217,0,7.636-3.419,7.636-7.636V22.15C263.118,17.933,259.699,14.514,255.482,14.514z" fill="#c5c5c5"/>
	</g>
</g>
<g>
	<g>
		<path d="M488.355,247.387h-40.497c-4.217,0-7.636,3.419-7.636,7.636c0,4.217,3.419,7.636,7.636,7.636h40.497    c4.217,0,7.636-3.419,7.636-7.636S492.572,247.387,488.355,247.387z" fill="#c5c5c5"/>
	</g>
</g>
<g>
	<g>
		<path d="M63.105,247.387H22.608c-4.217,0-7.636,3.419-7.636,7.636c0,4.217,3.419,7.636,7.636,7.636h40.497    c4.217,0,7.636-3.419,7.636-7.636S67.322,247.387,63.105,247.387z" fill="#c5c5c5"/>
	</g>
</g>
<g>
	<g>
		<path d="M425.547,84.957c-2.982-2.982-7.817-2.982-10.799,0l-28.636,28.636c-2.982,2.982-2.982,7.817,0,10.799    c1.492,1.491,3.446,2.237,5.4,2.237s3.908-0.746,5.399-2.237l28.636-28.636C428.529,92.774,428.529,87.939,425.547,84.957z" fill="#c5c5c5"/>
	</g>
</g>
<g>
	<g>
		<path d="M124.85,113.593L96.215,84.958c-2.982-2.982-7.817-2.982-10.799,0c-2.982,2.982-2.982,7.817,0,10.799l28.636,28.635    c1.491,1.491,3.445,2.237,5.399,2.237c1.954,0,3.908-0.746,5.399-2.237C127.832,121.41,127.832,116.575,124.85,113.593z" fill="#c5c5c5"/>
	</g>
</g>
<g>
	<g>
		<path d="M511.567,481.532l-35.616-133.921c-5.195-19.535-25.1-34.838-45.314-34.838h-43.109c-0.048-0.228-0.081-0.457-0.141-0.684    l-21.564-81.086c-1.084-4.076-5.267-6.502-9.342-5.417c-4.076,1.084-6.5,5.266-5.417,9.342l20.702,77.845H140.234l35.997-135.353    c2.947-11.08,13.012-18.818,24.477-18.818h105.749c13.176,0,27.169,10.757,30.555,23.491l1.66,6.243    c1.084,4.075,5.265,6.499,9.342,5.417c4.075-1.084,6.5-5.267,5.417-9.342l-1.66-6.243c-5.195-19.535-25.1-34.837-45.314-34.837    H200.708c-18.378,0-34.513,12.404-39.236,30.165l-36.859,138.595c-0.06,0.227-0.093,0.456-0.141,0.684H76.528    c-18.378,0-34.513,12.404-39.236,30.165l-7.463,28.062c-1.084,4.075,1.341,8.258,5.417,9.342c4.075,1.084,8.258-1.341,9.342-5.417    l7.463-28.063c2.946-11.08,13.012-18.818,24.477-18.818h105.749c13.176,0,27.168,10.758,30.555,23.491l34.754,130.68H16.054    l16.213-60.964c1.084-4.075-1.341-8.258-5.417-9.342c-4.076-1.083-8.258,1.341-9.342,5.417L0.433,481.532    c-1.021,3.84-0.218,7.849,2.204,10.999c2.422,3.15,6.09,4.956,10.063,4.956h486.6c3.974,0,7.641-1.807,10.063-4.957    C511.785,489.381,512.588,485.372,511.567,481.532z M227.591,347.611c-1.943-7.308-5.946-14.022-11.252-19.566h76.827    c-3.436,4.295-6.035,9.331-7.514,14.894L256,454.434L227.591,347.611z M264.414,482.216l35.996-135.353    c2.947-11.08,13.012-18.818,24.478-18.818h105.749c13.176,0,27.169,10.758,30.555,23.491l34.754,130.68H264.414z" fill="#c5c5c5"/>
	</g>
</g>
<g>
</g>
<g>
</g>
<g>
</g>
<g>
</g>
<g>
</g>
<g>
</g>
<g>
</g>
<g>
</g>
<g>
</g>
<g>
</g>
<g>
</g>
<g>
</g>
<g>
</g>
<g>
</g>
<g>
</g>
</svg>
