<?xml version="1.0" encoding="iso-8859-1"?>
<!-- Generator: Adobe Illustrator 19.0.0, SVG Export Plug-In . SVG Version: 6.00 Build 0)  -->
<svg xmlns="http://www.w3.org/2000/svg" xmlns:xlink="http://www.w3.org/1999/xlink" version="1.1" id="Capa_1" x="0px" y="0px" viewBox="0 0 511.999 511.999" style="enable-background:new 0 0 511.999 511.999;" xml:space="preserve" width="512px" height="512px">
<g>
	<g>
		<path d="M507.138,433.437l-39.058-39.058h2.549c15.807,0,28.666-12.86,28.666-28.666V69.782c0-15.807-12.86-28.666-28.666-28.666    H28.665C12.859,41.116,0,53.976,0,69.782v29.472c0,3.925,3.181,7.106,7.106,7.106s7.106-3.181,7.106-7.106V69.782    c0-7.971,6.484-14.455,14.454-14.455h441.963c7.971,0,14.455,6.484,14.455,14.455v295.93c0,7.971-6.484,14.455-14.455,14.455    h-17.207c0.021,0.014,0.041,0.032,0.062,0.046c-2.721-1.844-5.926-2.838-9.285-2.838c-3.376,0-6.595,1.006-9.325,2.868    c0.035-0.024,0.067-0.052,0.102-0.076h-3.643l-21-21c17.291-19.68,26.741-44.659,26.741-71.095    c0-28.817-11.223-55.909-31.599-76.286c-2.547-2.547-5.199-4.951-7.947-7.208c-19.231-15.799-43.125-24.391-68.341-24.391    c-16.21,0-31.873,3.551-46.104,10.285c-11.068,5.237-21.269,12.4-30.184,21.314c-0.295,0.296-0.581,0.597-0.873,0.895    c-0.344,0.352-0.693,0.702-1.032,1.058c-0.198,0.209-0.39,0.421-0.587,0.631c-0.437,0.466-0.874,0.932-1.301,1.404    c-0.094,0.104-0.184,0.21-0.278,0.314c-17.792,19.813-27.528,45.149-27.528,71.984c0,26.021,9.153,50.634,25.93,70.168    c0.012,0.014,0.023,0.028,0.035,0.042c0.475,0.552,0.959,1.099,1.446,1.643c0.137,0.153,0.27,0.309,0.408,0.461    c0.348,0.385,0.705,0.763,1.06,1.144c0.277,0.298,0.549,0.598,0.831,0.893c0.084,0.089,0.172,0.175,0.256,0.263    c0.538,0.562,1.08,1.121,1.632,1.674c0.723,0.723,1.456,1.431,2.196,2.13c0.162,0.153,0.326,0.303,0.489,0.455    c0.581,0.543,1.166,1.08,1.757,1.609c0.197,0.176,0.395,0.351,0.594,0.525c0.592,0.523,1.189,1.038,1.791,1.546    c0.165,0.139,0.33,0.279,0.495,0.417c0.735,0.613,1.476,1.216,2.224,1.808c0.024,0.019,0.047,0.038,0.071,0.057    c3.341,2.636,6.817,5.057,10.409,7.261H201.23H28.665c-7.97,0-14.454-6.484-14.454-14.455V144.277    c0-3.925-3.181-7.106-7.106-7.106c-3.925,0-7.105,3.182-7.105,7.106v221.435c0,15.807,12.859,28.666,28.665,28.666h163.537    l-6.071,25.122h-26.93c-12.618,0-22.884,10.266-22.884,22.885v13.022c0,6.594,5.364,11.959,11.959,11.959h202.741    c6.594,0,11.959-5.364,11.959-11.959v-13.022c0-12.619-10.266-22.885-22.884-22.885h-26.93l-6.071-25.122h3.542    c6.069,1.046,12.271,1.58,18.555,1.58s12.486-0.534,18.555-1.58h73.225c-1.605,2.593-2.478,5.578-2.478,8.704    c0,4.436,1.726,8.605,4.862,11.74l51.2,51.199c3.136,3.136,7.305,4.862,11.739,4.862s8.604-1.726,11.739-4.862l9.107-9.107    c3.136-3.136,4.862-7.305,4.862-11.739S510.274,436.572,507.138,433.437z M206.823,394.378h85.649l6.07,25.122h-97.789    L206.823,394.378z M307.569,433.712c0.006,0,0.011-0.001,0.016-0.001h32.506c4.783,0,8.673,3.892,8.673,8.674v10.769H150.529    v-10.769c0-4.782,3.891-8.674,8.673-8.674h32.506c0.005,0,0.011,0.001,0.016,0.001H307.569z M380.52,366.436    c-1.196,0.784-2.404,1.541-3.628,2.265c-0.05,0.03-0.099,0.06-0.149,0.089c-14.616,8.609-31.083,12.915-47.555,12.913    c-16.49-0.001-32.983-4.317-47.615-12.948c0,0,0,0-0.001,0c-1.276-0.752-2.535-1.542-3.782-2.36    c-0.085-0.056-0.17-0.11-0.255-0.166c-2.456-1.624-4.85-3.382-7.176-5.262c-0.277-0.224-0.55-0.454-0.824-0.681    c-0.844-0.698-1.678-1.415-2.503-2.148c-0.317-0.282-0.636-0.562-0.95-0.848c-1.011-0.923-2.01-1.866-2.989-2.841    c-0.047-0.047-0.096-0.091-0.143-0.137c-36.524-36.523-36.524-95.951,0-132.474c36.523-36.524,95.953-36.522,132.474,0    c14.376,14.375,23.504,32.6,26.422,52.349c0.673,4.558,1.016,9.196,1.016,13.888c0,25.022-9.744,48.546-27.438,66.238    c-1.031,1.031-2.085,2.023-3.152,2.996c-0.3,0.274-0.604,0.541-0.907,0.81c-0.835,0.742-1.68,1.468-2.535,2.175    c-0.272,0.225-0.543,0.454-0.817,0.676c-2.315,1.871-4.697,3.621-7.14,5.238C380.757,366.283,380.638,366.358,380.52,366.436z     M385.449,380.167c3.582-2.197,7.048-4.61,10.38-7.237c0.067-0.053,0.132-0.107,0.199-0.159c0.699-0.554,1.393-1.118,2.081-1.691    c0.204-0.17,0.406-0.341,0.609-0.513c0.526-0.445,1.048-0.894,1.566-1.35l10.95,10.95H385.449z M497.088,446.865l-9.107,9.107    c-0.609,0.61-1.319,0.7-1.689,0.7s-1.081-0.091-1.689-0.7l-51.2-51.199c-0.61-0.609-0.7-1.32-0.7-1.69    c0-0.369,0.091-1.081,0.7-1.689l9.107-9.107c0.609-0.61,1.319-0.7,1.689-0.7s1.081,0.091,1.689,0.7l51.2,51.2    c0.61,0.609,0.7,1.319,0.7,1.689S497.698,446.256,497.088,446.865z" fill="#c5c5c5"/>
	</g>
</g>
<g>
	<g>
		<path d="M419.657,124.376l-31.891-2.412c-3.919-0.292-7.325,2.637-7.621,6.55c-0.296,3.913,2.636,7.325,6.55,7.621l15.07,1.14    l-55.968,44.2c5.996,0.92,11.865,2.338,17.565,4.235l47.976-37.888l-0.658,16.043c-0.16,3.921,2.889,7.23,6.81,7.391    c0.099,0.004,0.197,0.006,0.295,0.006c3.791,0,6.938-2.993,7.096-6.815l1.34-32.695    C426.377,127.927,423.475,124.665,419.657,124.376z" fill="#c5c5c5"/>
	</g>
</g>
<g>
	<g>
		<path d="M264.497,192.075c-2.583-2.039-6.226-2.039-8.808,0l-72.894,57.566l-39.475-31.174c-2.581-2.039-6.227-2.039-8.808,0    l-74.283,58.665c-3.08,2.432-3.605,6.9-1.172,9.98c1.403,1.775,3.482,2.702,5.581,2.702c1.542,0,3.095-0.5,4.399-1.529    l69.879-55.187l39.475,31.174c2.581,2.039,6.227,2.039,8.808,0l63.268-49.965c0.176-0.19,0.35-0.381,0.529-0.569    c0.339-0.356,0.687-0.706,1.032-1.058c0.291-0.298,0.577-0.6,0.873-0.895c5.56-5.56,11.62-10.437,18.078-14.591L264.497,192.075z" fill="#c5c5c5"/>
	</g>
</g>
<g>
	<g>
		<path d="M451.631,72.381H47.664c-9.042,0-16.399,7.356-16.399,16.399v19.135v207.326c0,9.595,7.805,17.4,17.4,17.4h161.859    c3.925,0,7.106-3.181,7.106-7.106s-3.181-7.106-7.106-7.106H48.665c-1.758,0-3.188-1.43-3.188-3.188v-200.22h408.342v200.22    c-0.001,1.758-1.431,3.188-3.189,3.188h-4.592c-3.925,0-7.106,3.181-7.106,7.106s3.181,7.106,7.106,7.106h4.592    c9.595,0,17.4-7.805,17.4-17.4V107.915V88.78C468.03,79.738,460.674,72.381,451.631,72.381z M453.818,100.81H45.477V88.78    c0-1.206,0.981-2.187,2.187-2.187h403.967c1.206,0,2.187,0.982,2.187,2.187V100.81z" fill="#c5c5c5"/>
	</g>
</g>
<g>
	<g>
		<path d="M329.459,205.511c-45.611,0-82.717,37.107-82.717,82.716c0,45.611,37.107,82.717,82.717,82.717    c45.611,0,82.717-37.107,82.717-82.717S375.07,205.511,329.459,205.511z M329.459,355.944c-37.339,0-67.717-30.378-67.717-67.717    s30.378-67.716,67.717-67.716s67.717,30.377,67.717,67.716C397.176,325.566,366.798,355.944,329.459,355.944z" fill="#c5c5c5"/>
	</g>
</g>
<g>
	<g>
		<path d="M333.399,279.561v-27.066c9.334,0.666,12.8,4.933,16,4.933c4,0,5.867-5.067,5.867-7.6c0-6.533-12.799-9.333-21.866-9.6    v-3.6c0-1.601-2-3.067-4-3.067c-2.267,0-3.867,1.467-3.867,3.067v3.866c-12.667,1.334-25.333,8-25.333,24.8    c0,17.066,13.333,21.866,25.333,26.133v31.333c-13.599-1.067-17.199-10.4-21.599-10.4c-3.333,0-6.133,4.4-6.133,7.6    c0,6.533,11.2,15.466,27.733,15.733h-0.002v4.133c0,1.601,1.6,3.067,3.867,3.067c2,0,4-1.467,4-3.067v-4.533    c14.4-2,24.266-11.066,24.266-27.466C357.665,289.694,344.999,283.828,333.399,279.561z M326.334,277.027    c-7.067-2.666-12.8-5.466-12.8-13.066c0-6.934,5.333-10.267,12.8-11.2V277.027z M332.6,322.494v-28.133    c6.534,2.799,11.734,6.533,11.733,14.933C344.333,316.894,339.8,321.161,332.6,322.494z" fill="#c5c5c5"/>
	</g>
</g>
<g>
</g>
<g>
</g>
<g>
</g>
<g>
</g>
<g>
</g>
<g>
</g>
<g>
</g>
<g>
</g>
<g>
</g>
<g>
</g>
<g>
</g>
<g>
</g>
<g>
</g>
<g>
</g>
<g>
</g>
</svg>
